<svg aria-hidden="true" style="position:absolute;width:0;height:0" xmlns="http://www.w3.org/2000/svg" overflow="hidden"><defs><symbol id="icon-clock" viewBox="0 0 32 32"><path fill="var(--color1, #212121)" d="M31.296 15.301C31.295 6.849 24.441-.002 15.988 0S.685 6.855.687 15.308c.002 6.788 4.422 12.543 10.541 14.545l.108.031a.667.667 0 00.529-.065.636.636 0 00.283-.357l3.865-12.25a1.913 1.913 0 10-.852-3.63l.011-.005-5.106-5.107a.638.638 0 00-.902.902l5.103 5.109a1.847 1.847 0 00-.191.826c0 .602.283 1.137.723 1.48l.004.003-3.682 11.673C3.843 25.782.117 17.709 2.797 10.431S13.551-.573 20.829 2.108c7.278 2.681 11.004 10.754 8.323 18.032-1.345 3.581-4.003 6.406-7.374 7.938l-.088.036-.398-1.874a.639.639 0 00-1.05-.343l.001-.001-3.837 3.426a.637.637 0 00.227 1.083l.005.001 4.899 1.563a.637.637 0 00.818-.744l.001.004-.391-1.839c5.528-2.374 9.329-7.772 9.329-14.057v-.034.002zm-15.304-.637a.638.638 0 010 1.276.638.638 0 010-1.276zm2.1 14.864l2.184-1.948.603 2.84-2.787-.892z"/><path fill="var(--color2, #2196f3)" d="M15.354 3.185V4.46a.638.638 0 001.276 0V3.185a.638.638 0 10-1.276 0zM3.876 14.664a.638.638 0 000 1.276h1.275a.638.638 0 000-1.276H3.876zm24.232 1.275a.638.638 0 000-1.276h-1.275a.638.638 0 000 1.276h1.275z"/></symbol><symbol id="icon-envelope" viewBox="0 0 43 32"><path  d="M38.692-.006H4.003A4.008 4.008 0 000 3.997v24.016a4.008 4.008 0 004.003 4.003h34.689a4.008 4.008 0 004.003-4.003V3.997a4.008 4.008 0 00-4.003-4.003zm0 2.669c.181 0 .355.037.512.104L21.347 18.244 3.49 2.767c.151-.065.327-.104.512-.104h34.689zm0 26.684H4.003a1.334 1.334 0 01-1.334-1.334V5.585l17.804 15.431a1.33 1.33 0 001.752-.002l-.002.001L40.027 5.584v22.428c0 .737-.597 1.334-1.334 1.334z"/></symbol><symbol id="icon-smartphone" viewBox="0 0 20 32"><path  d="M17.005 0H2.996A3.006 3.006 0 00-.006 3.002v26.017a3.006 3.006 0 003.002 3.002h14.009a3.006 3.006 0 003.002-3.002V3.002A3.006 3.006 0 0017.005 0zM2.995 2.001h14.009a1 1 0 011.001 1.001v21.014H1.995V3.002a1 1 0 011.001-1.001zm14.01 28.019H2.996a1 1 0 01-1.001-1.001v-3.002h16.01v3.002a1 1 0 01-1.001 1.001z"/><path fill="var(--color3, #757575)" d="M4.705 27.496a.89.89 0 01.001 1.32l-.001.001a1.048 1.048 0 01-1.417-.001l.001.001a.89.89 0 01-.001-1.32l.001-.001a1.048 1.048 0 011.417.001l-.001-.001z"/></symbol><symbol id="icon-instagram" viewBox="0 0 32 32"><path d="M31.968 9.408c-.074-1.701-.349-2.869-.742-3.882a7.839 7.839 0 00-1.85-2.837l-.001-.001A7.906 7.906 0 0026.597.861l-.054-.018C25.524.449 24.362.176 22.661.101 20.949.019 20.405 0 16.059 0c-4.344 0-4.888.019-6.595.094-1.699.074-2.869.349-3.88.742a7.847 7.847 0 00-2.839 1.85l-.001.001A7.9 7.9 0 00.919 5.465l-.018.054C.506 6.538.232 7.7.157 9.401c-.082 1.712-.101 2.256-.101 6.602 0 4.344.019 4.888.094 6.595.075 1.701.35 2.869.744 3.882a7.915 7.915 0 001.849 2.837l.001.001c.8.813 1.77 1.443 2.832 1.843 1.019.395 2.182.67 3.882.744 1.707.075 2.251.094 6.595.094 4.346 0 4.89-.019 6.595-.094 1.701-.074 2.869-.349 3.882-.742a8.237 8.237 0 004.664-4.628l.019-.055c.394-1.019.669-2.182.744-3.882.075-1.707.093-2.251.093-6.595s-.006-4.888-.08-6.595zm-2.88 13.066c-.07 1.563-.333 2.406-.55 2.97a5.341 5.341 0 01-3.004 3.024l-.036.012c-.56.219-1.411.482-2.968.55-1.688.075-2.194.094-6.464.094-4.269 0-4.782-.019-6.464-.094-1.563-.069-2.406-.331-2.97-.55a4.953 4.953 0 01-1.836-1.192l-.001-.001a4.978 4.978 0 01-1.184-1.803L3.6 25.45c-.218-.563-.48-1.413-.549-2.97-.075-1.688-.094-2.195-.094-6.464 0-4.27.019-4.784.094-6.464.069-1.563.331-2.406.549-2.97a4.897 4.897 0 011.198-1.837l.002-.002a4.972 4.972 0 011.806-1.182l.034-.011c.56-.219 1.411-.48 2.968-.55 1.688-.074 2.195-.093 6.464-.093 4.275 0 4.782.019 6.464.093 1.563.069 2.406.331 2.97.55a4.91 4.91 0 011.837 1.194c.531.52.938 1.144 1.195 1.84.218.56.48 1.411.549 2.968.075 1.688.094 2.194.094 6.464 0 4.269-.019 4.768-.094 6.458z"/><path d="M16.059 7.782a8.223 8.223 0 00-8.219 8.221v.002a8.222 8.222 0 1016.444 0 8.222 8.222 0 00-8.222-8.222h-.002zm0 13.552a5.333 5.333 0 01.001-10.666h.001a5.334 5.334 0 110 10.668zM26.525 7.458a1.92 1.92 0 01-3.84 0 1.92 1.92 0 013.84 0z"/></symbol><symbol id="icon-facebook" viewBox="0 0 32 32"><path d="M21.328 5.312h2.923V.224A36.483 36.483 0 0020.143 0h-.156.008c-4.213 0-7.099 2.65-7.099 7.52V12H8.25v5.688h4.646V32h5.699V17.69h4.459l.707-5.688h-5.168V8.08c0-1.643.443-2.768 2.734-2.768z"/></symbol><symbol id="icon-twitter" viewBox="0 0 32 32"><path d="M32 6.078c-1.1.493-2.376.857-3.713 1.028l-.068.007a6.556 6.556 0 002.873-3.579l.013-.046a12.88 12.88 0 01-4.076 1.573l-.084.014A6.558 6.558 0 0015.6 9.557v.004c0 .52.043 1.021.152 1.496-5.454-.266-10.28-2.88-13.522-6.861a6.524 6.524 0 00-.902 3.313v.001a6.57 6.57 0 002.914 5.451 6.453 6.453 0 01-2.994-.823l.033.017v.072a6.592 6.592 0 005.213 6.44l.043.008a6.403 6.403 0 01-1.662.215h-.061.003c-.419 0-.843-.024-1.242-.112.85 2.598 3.261 4.509 6.13 4.57a13.093 13.093 0 01-8.122 2.8H1.57h.001-.062c-.531 0-1.055-.034-1.569-.099l.061.006c2.826 1.846 6.287 2.944 10.004 2.944h.063-.003c12.072 0 18.672-10 18.672-18.669 0-.288-.01-.57-.024-.848a13.203 13.203 0 003.258-3.355l.03-.047z"/></symbol><symbol id="icon-linkedin" viewBox="0 0 32 32"><path d="M31.992 32H32V20.262c0-5.741-1.237-10.163-7.947-10.163-3.227 0-5.392 1.77-6.277 3.45h-.093v-2.914h-6.365v21.363h6.627V21.42c0-2.786.528-5.48 3.978-5.48 3.398 0 3.448 3.179 3.448 5.658V32h6.621zM.528 10.635h6.635V32H.528V10.635zM3.843 0A3.843 3.843 0 000 3.843c0 2.12 1.722 3.878 3.843 3.878 2.12 0 3.842-1.757 3.842-3.878S5.965.002 3.844 0z"/></symbol><symbol id="icon-logo2" viewBox="0 0 25 32"><path  d="M10.447 1.806h.084c.156 0 .324.015.49.03a13.96 13.96 0 012.18.329V.403c-.652-.172-1.42-.3-2.207-.357l-.042-.002c-.254-.02-.571-.035-.889-.043H9.779c-1.523.006-3.04.201-4.515.582a18.3 18.3 0 00-4.79 1.948v17.476a18.922 18.922 0 014.431-1.75l.135-.029a19.11 19.11 0 013.78-.586l.053-.002h.052c.217-.011.433-.017.655-.018v-1.791c-1.78.024-3.493.264-5.129.695l.147-.033c-.603.157-1.185.326-1.731.513l-.623.212V3.591l.266-.128C4.4 2.545 6.606 1.95 8.935 1.814l.047-.002.028-.001.029.001h-.001c.248-.012.497-.018.742-.018h.28c.129.003.258.006.388.014z"/><path  d="M14.837 3.651h-.016c-.915 0-1.811-.077-2.684-.225l.094.013c-.277-.047-.55-.103-.814-.164v17.276c1.12.277 2.271.412 3.425.404a18.446 18.446 0 004.644-.61l-.128.029a18.299 18.299 0 004.877-1.995l-.085.047V1.262a19.057 19.057 0 01-4.429 1.751l-.136.03a19.346 19.346 0 01-4.747.609zm6.908.299l.623-.209v13.63l-.266.129c-.903.442-1.962.834-3.065 1.118l-.119.026c-1.331.345-2.7.521-4.074.527-.411 0-.819-.017-1.214-.052l-.427-.038V5.063l.497.033c.361.023.735.034 1.141.034a21.092 21.092 0 005.173-.663 28.128 28.128 0 001.731-.518zM1.684 25.978a.916.916 0 00-.661-.281l-.034.001h.002-.014c-.139 0-.272.028-.393.078l.007-.003a.904.904 0 00-.51.512l-.002.006a1.003 1.003 0 00-.071.387v2.335c-.006.164.026.328.092.479.055.12.135.226.234.313a.824.824 0 00.32.166c.114.031.231.048.349.048a.986.986 0 00.968-.983v-.261H1.36v.222c0 .07-.013.136-.037.198l.001-.004a.38.38 0 01-.089.132.426.426 0 01-.255.089.308.308 0 01-.286-.125l-.001-.001a.548.548 0 01-.082-.289l.001-.024v.001-2.177a.74.74 0 01.075-.349.31.31 0 01.262-.143l.038.002H.986h.012c.107 0 .201.052.26.131l.001.001a.493.493 0 01.101.3v.014-.001.202h.604v-.238-.011c0-.143-.027-.28-.077-.405l.003.007a.955.955 0 00-.205-.329zm3.626-.025a1.051 1.051 0 00-1.058-.191.964.964 0 00-.557.512l-.002.006a1.08 1.08 0 00-.089.452v2.239a1.08 1.08 0 00.089.459.888.888 0 00.236.313.964.964 0 00.322.197 1.049 1.049 0 001.059-.198l-.001.001a.948.948 0 00.23-.313c.063-.144.093-.301.089-.459v-2.24-.02c0-.156-.033-.305-.092-.439l.003.007a1.016 1.016 0 00-.23-.327zm-.285 3.018l.002.035a.398.398 0 01-.123.289.446.446 0 01-.575 0l.001.001a.398.398 0 01-.121-.326v.002-2.24l-.001-.034c0-.114.047-.216.123-.289a.446.446 0 01.575 0l-.001-.001a.398.398 0 01.121.326v-.002 2.24zm5.047 1v-4.24h-.587l-.771 2.244h-.01l-.777-2.244h-.58v4.239h.606v-2.579h.011l.593 1.823h.302l.598-1.823h.01v2.579h.606zm3.441-3.942a.834.834 0 00-.342-.232 1.31 1.31 0 00-.416-.066h-.024.001-.9v4.24h.604v-1.656h.311c.189.009.376-.031.545-.116a.88.88 0 00.329-.32l.002-.004a1 1 0 00.138-.369c.021-.133.033-.287.033-.444v-.04.002a2.426 2.426 0 00-.059-.606.906.906 0 00-.223-.39zm-.312 1.292a.538.538 0 01-.057.224l.001-.003a.342.342 0 01-.154.147l-.002.001a.617.617 0 01-.254.054l-.033-.001h.002-.276v-1.441h.311l.029-.001c.088 0 .172.02.247.055l-.004-.002a.35.35 0 01.141.154l.001.002a.62.62 0 01.053.236v.282c0 .098.006.201 0 .291H13.2zm3.173-1.59h-.495l-.934 4.24h.604l.177-.911h.823l.178.911h.604l-.958-4.24zm-.557 2.752l.297-1.537h.011l.295 1.537h-.604zm4.46-.198h-.011l-.912-2.554h-.581v4.24h.604v-2.55h.012l.923 2.549h.568v-4.239h-.604v2.554zm3.692-2.554l-.486 1.686h-.012l-.486-1.686h-.639l.83 2.448v1.791h.604v-1.791l.83-2.448h-.64zm-23.97 5.437H.29v.817h.198v-.817h.289v-.167h-.778v.168zM2.447 31l-.382.985h.21l.081-.224h.392l.084.224h.215L2.656 31h-.21zm-.031.595l.134-.365.134.365h-.268zm2.45.027h.228v.127a.378.378 0 01-.234.083h-.014a.25.25 0 01-.195-.094.406.406 0 01-.073-.234l.001-.023v.001c0-.219.095-.329.283-.329l.021-.001c.097 0 .178.067.201.157v.001l.194-.038c-.042-.192-.18-.289-.417-.289h-.013a.492.492 0 00-.331.127.48.48 0 00-.141.38v-.002.023c0 .132.048.254.127.347l-.001-.001c.087.09.209.146.343.146l.032-.001h-.001.016c.155 0 .296-.06.402-.157v-.388h-.426v.166zM7.337 31h-.199v.985h.689v-.167h-.49v-.817zm2.089 0h-.199v.985h.199V31zm2.043.657L11.065 31h-.193v.985h.185v-.643l.396.643h.198V31h-.182v.658zm1.846-.106h.491v-.167h-.491v-.215h.527v-.168h-.727v.985h.747v-.167h-.548v-.266zm4.477-.162h-.388v-.388h-.197v.984h.197v-.431h.388v.431h.198V31h-.198v.388zm1.858.162h.492v-.167h-.492v-.215h.529v-.168h-.726v.985h.746v-.167h-.548v-.266zm2.519.001c.171-.027.258-.118.258-.274a.23.23 0 00-.096-.219h-.001a.555.555 0 00-.25-.059l-.04.001h.002-.417v.984h.198v-.412h.055c.039 0 .076.008.109.023l-.002-.001a.201.201 0 01.07.072l.215.313h.236l-.12-.192a.704.704 0 00-.215-.235l-.002-.002zm-.2-.137h-.146v-.247h.156a.515.515 0 01.205.024l-.004-.001a.13.13 0 01-.009.2.537.537 0 01-.164.025l-.039-.001h.002zm2.099.136h.49v-.167h-.49v-.215h.529v-.168h-.729v.985h.747v-.167h-.548v-.266z"/></symbol><symbol id="icon-antenna" viewBox="0 0 32 32"><path fill="var(--color1, #212121)" d="M30.773 22.098l-8.443-8.505.937-4.616c.225.09.485.144.758.146h.033a2.16 2.16 0 10-2.029-1.42l-.005-.015-4.96.606L8.973.161a.53.53 0 00-.376-.16.536.536 0 00-.373.155L6.712 1.66a.535.535 0 000 .754l.814.825C6.383 5.301 5.71 7.761 5.71 10.378c0 4.106 1.656 7.824 4.336 10.525l-.001-.001a.49.49 0 00.146.097 2.986 2.986 0 00-.052.546v6.188h-6.4a2.669 2.669 0 00-2.667 2.666v1.067c0 .295.239.534.534.534H26.14a.534.534 0 00.533-.534v-1.067a2.67 2.67 0 00-2.666-2.666h-6.4v-2.742a14.784 14.784 0 0010.166-1.502l-.077.039.818.823a.534.534 0 00.376.16.536.536 0 00.373-.155l1.512-1.504a.535.535 0 000-.754zM23.28 6.233a1.067 1.067 0 11.752 1.822h-.004a1.066 1.066 0 01-.747-1.822h-.002zm-1.256 3.504l-.598 2.946-1.175-1.183 1.774-1.763zm-.605-.902l-1.92 1.909-1.486-1.493 3.406-.416zM24.004 28.8a1.6 1.6 0 011.6 1.6v.534H2.138V30.4a1.6 1.6 0 011.6-1.6h20.267zm-7.466-2.134v1.067h-5.334v-1.067h5.334zM11.204 25.6v-4.053c0-1.294 1.196-2.346 2.667-2.346s2.667 1.053 2.667 2.346V25.6h-5.334zm6.4-1.696v-2.357c0-1.882-1.675-3.413-3.733-3.413h-.058c-1.353 0-2.54.707-3.213 1.771l-.009.016a13.817 13.817 0 01-3.812-9.55c0-2.314.567-4.496 1.569-6.414l-.036.077 18.602 18.709c-1.823.947-3.979 1.502-6.266 1.502-1.079 0-2.128-.124-3.136-.357l.093.018zm11.289-.684L7.836 2.039l.754-.752 7.935 7.98c.004 0 .006.007.01.01l13.114 13.191-.757.752z"/><path fill="var(--color2, #2196f3)" d="M13.876 20.267h-.007a1.6 1.6 0 00-.003 3.2h.007a1.6 1.6 0 00.002-3.2zm.373 1.978a.534.534 0 11-.378-.912.533.533 0 01.374.911h.005z"/></symbol><symbol id="icon-diagram" viewBox="0 0 32 32"><path fill="var(--color2, #2196f3)" d="M14.926 14.965h1.066v4.798h-1.066v-4.798zm4.264 2.132h1.066v2.665H19.19v-2.665zm-8.529 1.599h1.066v1.066h-1.066v-1.066zm-3.198-.533h1.066v1.599H7.463v-1.599z"/><path fill="var(--color1, #212121)" d="M1.599 28.291h25.586a1.6 1.6 0 001.599-1.599V24.56a1.6 1.6 0 00-1.599-1.599h-.533V9.667l3.028-2.868a1.608 1.608 0 10-.742-.752l-.004-.01-2.281 2.162v-1.23a1.6 1.6 0 00-1.599-1.599H3.731a1.6 1.6 0 00-1.599 1.599v15.992h-.533A1.6 1.6 0 000 24.56v2.132a1.6 1.6 0 001.599 1.599zM30.384 4.837a.533.533 0 010 1.066.533.533 0 010-1.066zM3.198 6.969c0-.294.239-.533.533-.533h21.323c.294 0 .533.239.533.533v2.239l-1.066 1.013V8.036a.534.534 0 00-.534-.534H4.798a.534.534 0 00-.534.533v13.327c0 .294.239.533.534.533h19.189a.534.534 0 00.534-.533v-9.675l1.066-1.01V22.96H3.198V6.969zm4.798 6.93h-.005a1.6 1.6 0 101.112 2.748l1.853.93a.535.535 0 00.636-.122l3.939-4.432 3.872 2.902a.534.534 0 00.686-.039l3.365-3.188v8.131H5.331V8.568h18.123v2.661l-3.771 3.572-3.904-2.927a.534.534 0 00-.718.071v.001l-3.993 4.493-1.493-.746c.011-.064.017-.128.02-.193a1.6 1.6 0 00-1.599-1.599zm.533 1.599a.533.533 0 01-1.066 0 .533.533 0 011.066 0zm3.198 8.528h5.33v.533a.533.533 0 01-.533.533h-4.265a.533.533 0 01-.533-.533v-.533zm-10.66.534c0-.294.238-.533.533-.533h9.062v.533a1.6 1.6 0 001.599 1.599h4.265a1.6 1.6 0 001.599-1.599v-.533h9.062c.294 0 .533.239.533.533v2.132a.533.533 0 01-.533.533H1.601a.533.533 0 01-.533-.533V24.56z"/></symbol><symbol id="icon-astronaut" viewBox="0 0 32 32"><path fill="var(--color2, #2196f3)" d="M31.974 4.524a.535.535 0 00-.427-.362h-.003l-1.911-.278-.855-1.731c-.179-.365-.777-.365-.956 0l-.855 1.731-1.911.278a.534.534 0 00-.296.91l1.383 1.348-.326 1.903a.532.532 0 00.774.562l1.709-.899 1.709.899a.534.534 0 00.773-.565v.003l-.326-1.903 1.383-1.348a.535.535 0 00.134-.55l.001.004zm-2.463 1.327a.53.53 0 00-.153.472l.191 1.114-1-.526a.525.525 0 00-.501.001l.003-.001-1 .526.191-1.114a.53.53 0 00-.152-.472l-.811-.79 1.119-.162a.532.532 0 00.402-.292l.5-1.013.5 1.013a.532.532 0 00.402.292l1.119.162-.809.79zm-3.377 14.671h-1.067v1.067h1.067v-1.067zm0 2.134h-1.067v1.066h1.067v-1.066zm1.066-1.067h-1.067v1.067H27.2v-1.067zm-2.133 0H24v1.067h1.067v-1.067zm-2.667 4.8h-1.067v1.067H22.4v-1.067zm0 2.134h-1.067v1.067H22.4v-1.067zm1.067-1.067H22.4v1.067h1.067v-1.067zm-2.133 0h-1.067v1.067h1.067v-1.067zM16 24.256h-1.066v1.067H16v-1.067zm0 2.133h-1.066v1.067H16v-1.067zm1.067-1.067H16v1.067h1.067v-1.067zm-2.133 0h-1.067v1.067h1.067v-1.067zm-9.067-19.2H4.801v1.066h1.066V6.122zm0 2.134H4.801v1.066h1.066V8.256zm1.066-1.067H5.866v1.067h1.066V7.189zm-2.133 0H3.733v1.067H4.8V7.189z"/><path fill="var(--color1, #212121)" d="M24.715 14.16a1.774 1.774 0 00-1.179-.703l-.009-.001a1.769 1.769 0 00-1.344.355l.004-.003-1.253.96-1.898 1.417-1.358-.541c2.421-1.086 4.113-3.508 4.113-6.32 0-3.823-3.122-6.934-6.961-6.934S7.869 5.5 7.869 9.324c0 1.386.415 2.674 1.12 3.759l-2.768-.024c-.009 0-.016.005-.023.005a.511.511 0 00-.159.033l.004-.001c-.013.005-.026.007-.038.013-.006.003-.013.003-.019.006l-3.233 1.596-.001.001-1.893.91a.5.5 0 00-.065.036l.001-.001a1.782 1.782 0 00-.594 2.306l-.005-.01c.22.424.592.742 1.043.885l.013.003a1.772 1.772 0 001.388-.133l-.009.005 1.388-.738 2.264-1.169 1.357-.008-5.442 5.415-.001.001-1.339 1.333a1.643 1.643 0 00-.491 1.173v.005a1.668 1.668 0 001.667 1.664h.002a1.67 1.67 0 001.18-.485l1.314-1.309 1.741-1.3.901.897L4.07 27.28a1.643 1.643 0 00-.491 1.173v.004a1.662 1.662 0 001.666 1.664h.003a1.67 1.67 0 001.18-.485l4.488-4.472c.007-.006.016-.009.022-.016l5.166-5.658 3.471.494a.474.474 0 00.262-.032c.017-.006.032-.015.049-.023.019-.01.039-.015.058-.027l3.213-2.133c.012-.008.018-.021.029-.03.013-.01.029-.014.041-.026l1.271-1.191c.348-.326.564-.787.564-1.3 0-.4-.132-.769-.355-1.066l.003.005zM2.13 17.77a.706.706 0 01-.564.05l.005.001a.717.717 0 01-.215-1.258l.002-.001 1.314-.632.316.924.133.389-.992.527zm3.497-1.828l-1.548.8-.255-.746-.184-.537 2.027-1.001-.04 1.484zm15.1-6.62c0 .918-.219 1.785-.599 2.56l-4.181-1.899a1.865 1.865 0 00-.782-1.384l-.006-.004 1.464-4.861c2.377.757 4.104 2.975 4.104 5.588zm-11.789 0c0-3.235 2.644-5.867 5.894-5.867.253 0 .5.022.745.053l-1.432 4.753c-.019 0-.037-.006-.057-.006h-.001a1.872 1.872 0 00-1.872 1.867 1.873 1.873 0 001.872 1.867h.001c.695 0 1.295-.383 1.618-.944l3.863 1.755a5.891 5.891 0 01-4.737 2.39c-3.25 0-5.894-2.632-5.894-5.867zm5.957.8c0 .441-.362.8-.806.8h-.001a.804.804 0 01-.804-.8c0-.441.361-.8.806-.8s.806.359.806.8zM2.464 25.146a.606.606 0 01-.855.001.591.591 0 010-.844l.962-.959.852.848-.959.954zm3.214 3.734a.606.606 0 01-.855.001.591.591 0 010-.844l.963-.959.852.848-.96.955zm3.482-3.469l-.001.001-1.765 1.76-.852-.848 1.765-1.757a.527.527 0 00.09-.136c.007-.014.02-.026.026-.04.016-.041.019-.085.026-.128.003-.025.014-.048.014-.073 0-.035-.013-.07-.02-.105-.006-.032-.006-.064-.019-.096a.536.536 0 00-.092-.138c-.01-.012-.014-.026-.025-.038h-.001l-.001-.002-1.607-1.6c-.017-.017-.039-.024-.058-.038a.491.491 0 00-.084-.056l-.003-.001a.527.527 0 00-.09-.031l-.003-.001a.502.502 0 00-.101-.02h-.025a.603.603 0 00-.075.005h.003c-.036.005-.069.009-.104.021s-.064.027-.094.045c-.02.011-.043.015-.061.029l-1.774 1.324-.901-.897 2.399-2.386 4.36 4.289-.928.919zm6.819-7.017c-.016-.002-.03.004-.046.003l-.027-.001a.562.562 0 00-.092.008h.003a.484.484 0 00-.187.07l.002-.001a.492.492 0 00-.083.061c-.013.011-.028.016-.04.029l-4.698 5.146-4.328-4.256 2.833-2.818a.535.535 0 00-.378-.911h-.002l-2.219.013.028-1.607 3.104.027a6.928 6.928 0 004.978 2.101h.003c.438 0 .864-.046 1.28-.122.04.032.08.064.129.085l2.41.96.152.758.178.886-3.003-.427zm4.041.178l-.313-1.558 1.446-1.08.946 1.257-2.08 1.381zm3.753-2.831l-.837.785-.931-1.236.831-.637a.735.735 0 01.543-.143.718.718 0 01.621.71.71.71 0 01-.226.521z"/><path fill="var(--color1, #212121)" d="M13.602 18.544l-2.143-2.134a.53.53 0 00-.752 0l-2.143 2.133a.535.535 0 000 .756l2.142 2.134a.53.53 0 00.752 0l2.143-2.134a.532.532 0 000-.756zm-2.519 1.759l-1.387-1.381 1.386-1.381 1.387 1.381-1.387 1.381zm6.081-15.232l-.258 1.036c.071.018 1.738.452 1.738 2.149h1.067c0-2.017-1.666-2.965-2.547-3.184zm2.547 4.251h-1.067v1.066h1.067V9.322z"/></symbol><symbol id="icon-logo1" viewBox="0 0 31 32"><path  d="M3.84 0l4.677 4.428h13.046v12.351l4.677 4.428V.001H3.84z"/><path  d="M0 4.241v20.6h21.76v-8.188L8.655 4.246 0 4.241zm17.615 17.587H3.443V7.973h1.002V20.89h13.17v.938zM6.266 28.662l.524-1.078h.438l-.764 1.437v.838h-.397v-.838l-.764-1.437h.439l.524 1.078zm2.247.667h-.881l-.184.53h-.411l.859-2.275h.355l.861 2.275h-.413l-.186-.53zm-.77-.319h.659l-.33-.944-.33.944zm2.328.234c0-.105.029-.202.086-.289.058-.089.17-.193.339-.314a1.498 1.498 0 01-.182-.276l-.004-.008a.568.568 0 01-.052-.226c0-.179.054-.319.163-.422s.254-.156.437-.156a.57.57 0 01.406.147c.106.097.16.218.16.361v.003a.497.497 0 01-.074.262l.001-.002a.858.858 0 01-.233.236l-.003.002-.155.113.44.518a.914.914 0 00.095-.417h.33c0 .28-.065.509-.196.689l.334.396h-.44l-.128-.152a.93.93 0 01-.558.183h-.025.001c-.225 0-.405-.06-.54-.179a.597.597 0 01-.202-.447v-.021.001zm.753.343a.58.58 0 00.359-.128l-.497-.586-.049.035c-.125.095-.188.203-.188.325 0 .105.034.191.102.256a.375.375 0 00.254.099h.019-.001zm-.21-1.466c0 .088.054.197.161.33l.173-.118.049-.039a.283.283 0 00.097-.212v-.009-.002a.2.2 0 00-.067-.149.233.233 0 00-.162-.064h-.019a.224.224 0 00-.167.075.276.276 0 00-.066.179v.01zm4.134.997c-.023.243-.113.432-.269.568s-.364.204-.623.204a.902.902 0 01-.48-.128.86.86 0 01-.317-.362l-.002-.005a1.302 1.302 0 01-.117-.544v-.22c0-.214.038-.403.114-.567a.871.871 0 01.326-.378.913.913 0 01.494-.133c.251 0 .453.068.606.205s.243.329.268.578h-.394c-.019-.163-.067-.281-.144-.353-.076-.073-.188-.109-.336-.109a.464.464 0 00-.397.189c-.092.125-.138.309-.141.552v.202c0 .246.044.433.132.563s.218.194.387.194c.155 0 .272-.035.35-.105s.128-.186.148-.348h.394zm2.17-.338c0 .223-.038.419-.115.588a.88.88 0 01-.332.388.905.905 0 01-.494.134.92.92 0 01-.493-.134.897.897 0 01-.332-.38l-.002-.006a1.335 1.335 0 01-.119-.555v-.023.001-.128c0-.222.038-.418.117-.588s.19-.3.333-.389c.144-.091.308-.136.493-.136s.35.045.493.134c.143.089.255.217.333.384s.118.362.118.584v.126zm-.396-.118c0-.252-.048-.445-.143-.58a.465.465 0 00-.384-.202l-.022.001h.001-.016a.468.468 0 00-.384.2l-.001.002c-.096.133-.145.323-.147.567v.131c0 .25.049.444.146.58s.233.205.406.205c.175 0 .31-.067.403-.2.095-.133.142-.328.142-.584v-.118z"/></symbol><symbol id="icon-logo3" viewBox="0 0 31 32"><path d="M4.722 31.113c.023.001.044.01.06.025l.153.161c-.119.13-.266.234-.431.304a1.533 1.533 0 01-.61.109h-.031c-.196 0-.383-.038-.554-.106l.01.004a1.255 1.255 0 01-.71-.725l-.003-.009a1.591 1.591 0 01-.097-.55v-.022-.022c0-.198.038-.387.108-.56l-.004.01a1.32 1.32 0 01.298-.444c.13-.127.287-.225.459-.29.188-.07.389-.104.591-.102a1.47 1.47 0 01.55.093c.151.063.29.149.412.257l-.129.171a.134.134 0 01-.032.031.077.077 0 01-.045.014h-.006a.107.107 0 01-.056-.019l-.069-.045-.096-.059a1.024 1.024 0 00-.296-.101l-.006-.001a1.233 1.233 0 00-.209-.018h-.02.001-.016c-.147 0-.288.028-.417.079l.008-.003a.977.977 0 00-.334.216 1.002 1.002 0 00-.216.342 1.253 1.253 0 00-.079.453c-.002.156.025.313.079.46.046.126.119.242.212.341a.871.871 0 00.318.212c.125.049.259.074.395.073.078.001.156-.004.234-.015a.879.879 0 00.505-.235.115.115 0 01.072-.03zm4.424-.807c.002.194-.033.387-.103.568a1.26 1.26 0 01-.288.441 1.314 1.314 0 01-.444.286l-.009.003a1.695 1.695 0 01-1.176-.004l.012.004a1.3 1.3 0 01-.738-.727l-.003-.009a1.61 1.61 0 01.004-1.147l-.004.011a1.34 1.34 0 01.29-.447 1.32 1.32 0 01.441-.276l.009-.003a1.674 1.674 0 011.176.004l-.012-.004a1.29 1.29 0 01.741.729c.071.182.106.376.104.571zm-.402 0v-.024c0-.155-.027-.303-.076-.441l.003.009a.907.907 0 00-.522-.554l-.006-.002a1.219 1.219 0 00-.855.003l.009-.003a.903.903 0 00-.528.55l-.002.006a1.469 1.469 0 000 .913.899.899 0 00.524.552l.006.002c.273.097.573.097.846 0a.903.903 0 00.324-.214.972.972 0 00.205-.341c.052-.147.076-.302.073-.456zm3.419.478l.041.102c.015-.036.028-.069.044-.102.017-.04.034-.073.052-.105l-.002.005.978-1.694c.019-.03.037-.048.056-.053a.234.234 0 01.066-.009h.015-.001.289v2.756h-.342v-2.111l-.001-.048.001-.05v.002l-.984 1.719a.149.149 0 01-.057.062h-.001a.16.16 0 01-.082.022h-.057a.151.151 0 01-.141-.084v-.001l-1.013-1.73v2.213h-.331v-2.751h.303a.22.22 0 01.068.01h-.002a.107.107 0 01.053.052v.001l1 1.697c.018.028.035.06.048.094l.001.004zm3.683-.136v1.032h-.383v-2.751h.887c.158 0 .311.022.456.063l-.012-.003a.927.927 0 01.337.171.71.71 0 01.191.27.925.925 0 01.066.352.84.84 0 01-.071.352.763.763 0 01-.205.274l-.001.001a.953.953 0 01-.333.181l-.007.002a1.5 1.5 0 01-.462.064l-.463-.007zm0-.296h.464a.95.95 0 00.296-.042.627.627 0 00.215-.12l-.001.001c.056-.049.1-.11.129-.178l.001-.003a.565.565 0 00.046-.225v-.008l.001-.028a.506.506 0 00-.041-.199l.001.003a.533.533 0 00-.134-.188.763.763 0 00-.517-.148h.003-.464v1.134zm5.147 1.332h-.308a.134.134 0 01-.079-.026.168.168 0 01-.049-.063v-.001l-.261-.666h-1.307l-.27.666a.162.162 0 01-.047.062.135.135 0 01-.082.028h-.307l1.149-2.757h.398l1.164 2.757zm-1.896-1.024h1.079l-.456-1.122a1.813 1.813 0 01-.083-.246l-.003-.014-.044.144a1.282 1.282 0 01-.045.126l.003-.009-.452 1.12zm3.55-1.72c.023.013.043.03.058.05l1.675 2.077v-2.139h.342v2.757h-.196a.164.164 0 01-.074-.017h.001a.233.233 0 01-.061-.051l-1.674-2.075a.753.753 0 010 .095v2.049h-.342v-2.757h.203a.18.18 0 01.069.013zm4.898 1.647v1.094h-.383v-1.094l-1.059-1.66H26.453c.028 0 .054.009.075.024a.251.251 0 01.052.061l.001.001.663 1.07c.026.045.049.088.069.128s.034.078.048.116l.05-.118a.93.93 0 01.068-.13l-.002.004.653-1.078a.284.284 0 01.05-.059.117.117 0 01.076-.027h.353l-1.061 1.668zm-15.571-6.286c.167.02.335.037.506.051 2.583-1.102 4.769-2.903 6.283-5.181s2.291-4.931 2.232-7.627l-2.847-2.713c.189.894.297 1.922.297 2.975 0 2.016-.396 3.939-1.115 5.696l.036-.1c-1.091 2.732-2.958 5.122-5.392 6.901z"/><path d="M10.957 24.175l.077.015c2.601-1.773 4.585-4.248 5.693-7.106.627-1.565.991-3.379.991-5.278 0-1.296-.17-2.553-.488-3.75l.023.102-4.056-3.863c1.27 2.397 2.015 5.241 2.015 8.258 0 .702-.04 1.394-.119 2.074l.008-.083c-.397 3.52-1.834 6.859-4.145 9.631zm13.754-9.446c-.689 2.963-2.362 5.634-4.772 7.618a14.865 14.865 0 01-2.192 1.511l-.075.039a13.565 13.565 0 005.286-2.852l-.016.013a12.769 12.769 0 003.382-4.68l.031-.084-1.645-1.566z"/><path d="M24.066 14.293l-2.342-2.231a13.692 13.692 0 01-2.231 7.251l.032-.053c-1.394 2.17-3.374 3.945-5.731 5.139h.012c.526 0 1.05-.03 1.572-.089a14.486 14.486 0 005.651-3.951l.014-.017a13.405 13.405 0 003.006-5.96l.016-.089zM11.296 2.665L8.502 0C6.004.919 3.857 2.536 2.34 4.638S.006 9.229-.001 11.779c.01 2.819 1.005 5.553 2.83 7.773s4.373 3.794 7.244 4.478c2.562-2.974 4.062-6.649 4.283-10.491s-.852-7.65-3.06-10.873zM30.52 13.883c-.01-3.344-1.409-6.549-3.891-8.913s-5.845-3.698-9.355-3.707a13.685 13.685 0 00-4.743.841L29.636 18.4c.559-1.335.884-2.887.884-4.514v-.001z"/></symbol><symbol id="icon-logo5" viewBox="0 0 40 32"><path d="M3.056 26.745c.157.194.24.438.236.688l.001.053c0 .324-.141.615-.365.815l-.001.001a1.576 1.576 0 01-1.062.317H0v-4.361h1.827a1.548 1.548 0 011.017.294l-.004-.003a.996.996 0 01.353.818v-.003c.011.24-.065.477-.212.667a.99.99 0 01-.556.34c.247.046.471.177.631.373zm-2.188-.659h.78a.733.733 0 00.497-.145.518.518 0 00.169-.383l-.002-.045v.002l.001-.037a.535.535 0 00-.167-.389.75.75 0 00-.514-.147h.003-.767v1.144zm1.354 1.673a.542.542 0 00.186-.408l-.001-.036v.002l.001-.032a.552.552 0 00-.189-.416l-.001-.001a.8.8 0 00-.48-.159l-.054.002h.002-.818v1.199h.829a.816.816 0 00.524-.151zm4.569.861l-1.017-1.704h-.382v1.704h-.874v-4.361h1.655a1.624 1.624 0 011.156.373l-.003-.002a1.391 1.391 0 01.12 1.808l.003-.004a1.337 1.337 0 01-.789.443l1.083 1.743h-.951zm-1.399-2.299h.715c.497 0 .745-.22.745-.66l.001-.037a.647.647 0 00-.184-.453.767.767 0 00-.566-.177h.003-.724l.009 1.328zm6.177 1.421H9.827l-.308.878h-.917l1.6-4.313h.991l1.593 4.312h-.917l-.301-.878zm-.233-.661l-.637-1.841-.637 1.841h1.273zm6.216 1.539h-.869l-1.946-2.965v2.965h-.865v-4.361h.865l1.946 2.982v-2.982h.868v4.361zm4.953-1.044c-.182.33-.45.593-.775.765l-.01.005a2.545 2.545 0 01-1.22.274h-1.546v-4.361H20.5l.067-.001c.42 0 .817.1 1.168.277l-.015-.007c.332.168.606.433.786.761.171.333.272.727.272 1.144s-.1.811-.278 1.158l.007-.014zm-.994-.105c.239-.278.384-.642.384-1.041s-.145-.763-.386-1.043l.002.002a1.5 1.5 0 00-1.091-.371h.004-.603v2.823h.603a1.501 1.501 0 001.088-.372l-.002.001zM12.112-.001S23.315 4.245 23.078 10.39v10.393s-11.194-4.249-10.96-10.393L12.113-.001zM33.057 18.35a15.153 15.153 0 017.05-2.628l.068-.006v-3.253c-2.995 1.181-5.438 3.227-7.082 5.827l-.035.06z"/><path d="M31.786 19.33c1.749-3.487 4.694-6.159 8.284-7.514l.105-.035V2.407S24.221 8.456 24.559 17.206v14.797s.711-.27 1.83-.778c0-.473 0-.95.05-1.43a15.39 15.39 0 015.327-10.448l.021-.017z"/><path d="M30.269 24.827a15.3 15.3 0 01.558-3.03 14.246 14.246 0 00-3.378 8.922v.016a43.925 43.925 0 003.287-1.742l-.218.118c-.191-.908-.3-1.952-.3-3.021 0-.445.019-.885.056-1.32l-.004.057zm.634.054a14.803 14.803 0 00.212 3.972l-.015-.092c4.359-2.619 9.257-6.665 9.068-11.554v-.426a14.27 14.27 0 00-8.298 3.895l.005-.005a14.243 14.243 0 00-.968 4.158l-.003.052z"/></symbol><symbol id="icon-logo6" viewBox="0 0 62 32"><path d="M31.126 14.858a2.248 2.248 0 01-.396-1.437v.007-2.075c0-.637.132-1.12.394-1.451s.715-.495 1.356-.494c.602 0 1.03.141 1.282.422.276.359.41.798.379 1.241v.487h-1.077v-.494l.001-.064c0-.148-.012-.293-.034-.435l.002.016a.482.482 0 00-.153-.287.575.575 0 00-.345-.113l-.048.002h.002a.616.616 0 00-.412.119l.002-.001a.568.568 0 00-.178.313l-.001.004a2.594 2.594 0 00-.042.513v2.518a1.425 1.425 0 00.142.715l-.004-.008a.526.526 0 00.212.171l.003.001a.544.544 0 00.28.04h-.003a.545.545 0 00.382-.115l-.001.001a.522.522 0 00.16-.303v-.003c.026-.167.037-.336.034-.504v-.511h1.077v.466a2.015 2.015 0 01-.377 1.311l.004-.006c-.247.308-.669.462-1.288.462s-1.088-.164-1.354-.506zm4.484.021c-.272-.323-.408-.794-.408-1.416V11.28c0-.616.136-1.083.408-1.399s.726-.474 1.364-.473c.633 0 1.085.158 1.358.473.271.317.41.783.41 1.399v2.183c0 .616-.139 1.089-.415 1.414-.277.325-.727.487-1.354.487s-1.09-.164-1.364-.485zm1.866-.524c.097-.202.142-.424.129-.646v-2.672l.002-.072a1.28 1.28 0 00-.133-.569l.003.007a.528.528 0 00-.216-.173l-.003-.001a.533.533 0 00-.287-.037h.003a.546.546 0 00-.289.039l.004-.001a.536.536 0 00-.22.172l-.001.001a1.242 1.242 0 00-.129.633v2.685a1.29 1.29 0 00.129.646.672.672 0 00.222.158l.004.002a.692.692 0 00.558-.002l-.005.002a.672.672 0 00.226-.16v-.013zm2.562-4.884h1.16l.872 4.028.892-4.028h1.128l.113 5.813h-.833l-.089-4.04-.861 4.04h-.669l-.892-4.055-.083 4.055h-.843l.104-5.813zm5.465 0h1.806c1.04 0 1.56.55 1.56 1.651 0 1.054-.548 1.58-1.643 1.579h-.614v2.583h-1.115l.007-5.813zm1.543 2.484c.11.014.222.004.327-.028a.78.78 0 00.286-.155 1.01 1.01 0 00.16-.657l.001-.067c0-.163-.02-.322-.057-.474l.003.014a.425.425 0 00-.083-.161l.001.001a.484.484 0 00-.139-.116l-.002-.001a1.055 1.055 0 00-.499-.092h.003-.433v1.736h.433zm3.432-2.484h1.197l1.229 5.813h-1.039l-.243-1.341h-1.068l-.25 1.341h-1.055l1.229-5.813zm1.023 3.8l-.417-2.441-.417 2.441h.835zm2.395-3.8h.779l1.494 3.316V9.471h.925v5.813h-.742l-1.503-3.462v3.462h-.957l.002-5.813zm5.366 3.597L58.02 9.48h1.046l.758 2.305.711-2.305h1.023l-1.226 3.588v2.217h-1.071v-2.217zm-26.414 4.758v.304h-.91v2.362h-.381V18.13h-.914v-.304h2.205zm2.851 2.666h-.302a.124.124 0 01-.075-.026.134.134 0 01-.048-.06v-.001l-.263-.633h-1.262l-.264.633a.181.181 0 01-.04.072.124.124 0 01-.076.025h-.301l1.115-2.666h.388l1.128 2.655zm-1.846-.99h1.053l-.446-1.085a1.908 1.908 0 01-.08-.236l-.003-.014-.042.141-.04.111-.442 1.083zm3.769.728c.07.003.139.003.209 0 .061-.006.12-.017.179-.032a1.3 1.3 0 00.169-.052l-.009.003c.049-.019.099-.042.15-.065v-.6h-.451a.082.082 0 01-.055-.021.057.057 0 01-.022-.046v-.208h.865v1.022a1.61 1.61 0 01-.459.214l-.012.003a1.747 1.747 0 01-.269.055l-.009.001a2.896 2.896 0 01-.321.017h-.018c-.197 0-.386-.037-.56-.103l.011.004a1.34 1.34 0 01-.446-.279l.001.001a1.293 1.293 0 01-.285-.414l-.003-.008a1.426 1.426 0 01-.103-.536v-.018-.016c0-.195.037-.38.105-.551l-.004.01c.064-.158.161-.301.287-.422.127-.12.279-.214.446-.277a1.71 1.71 0 01.598-.099c.104 0 .207.007.31.023.09.014.179.036.266.067a1.2 1.2 0 01.223.106c.069.042.134.088.195.139l-.108.165a.103.103 0 01-.036.036.098.098 0 01-.051.014.137.137 0 01-.07-.021h.001a1.281 1.281 0 01-.114-.066l.005.003a.905.905 0 00-.143-.07l-.007-.002a1.21 1.21 0 00-.197-.058l-.008-.001a1.495 1.495 0 00-.268-.023h-.016.001-.013c-.15 0-.293.027-.425.077l.008-.003a.912.912 0 00-.328.211.924.924 0 00-.207.332 1.338 1.338 0 00.003.898l-.003-.009c.049.125.125.24.223.335a.952.952 0 00.326.212c.142.046.292.064.442.053zm3.553-.042h1.218v.304h-1.59v-2.666h.381l-.009 2.362zm2.484.303h-.381v-2.665h.381v2.666zm1.419-2.653a.192.192 0 01.057.048l1.63 2.01-.002-.048.002-.05v.002-1.986h.332v2.676h-.191l-.013.001a.171.171 0 01-.071-.016h.001a.266.266 0 01-.06-.05l-1.628-2.007v2.072h-.319v-2.665h.198c.022 0 .043.004.063.013zm4.826-.012v.294h-1.351V19h1.095v.282h-1.095v.91h1.351v.294h-1.743v-2.66h1.743zM9.951 1.362l16.93 4.551V21.86L9.952 17.312V1.362zM8.865.002v18.083l19.099 5.136V5.14L8.865.003z"/><path d="M19.101 31.615L0 26.475V8.394l19.101 5.138v18.084z"/><path d="M9.182 1.157l16.709 4.494-7.106 6.729L2.074 7.884l7.108-6.727zM8.865.002L0 8.394l19.101 5.138 8.863-8.392L8.865.002zm11.311 30.596l7.788-7.375-7.788-2.096v9.471z"/></symbol><symbol id="icon-close" viewBox="0 0 32 32">
<path d="M26.687 7.309l-1.971-1.971-7.814 7.814-7.814-7.814-1.971 1.971 7.814 7.814-7.814 7.814 1.971 1.971 7.814-7.814 7.814 7.814 1.971-1.971-7.814-7.814 7.814-7.814z"></path></symbol><symbol id="icon-logo4" viewBox="0 0 53 32"><path d="M10.292 8.053h-.002c-1.419 0-2.57 1.122-2.57 2.505v.002c0 1.383 1.151 2.505 2.57 2.505h.002c1.419 0 2.57-1.122 2.57-2.505v-.002c0-1.383-1.151-2.504-2.57-2.504zm18.973-.8a7.17 7.17 0 00-2.184-5.122A7.545 7.545 0 0021.827.003c-1.972.004-3.863.769-5.258 2.127s-2.18 3.202-2.184 5.124v10.595s14.878-1.615 14.88-10.594v-.001zM2.51 21.326a4.982 4.982 0 001.519 3.563l.001.001a5.243 5.243 0 003.656 1.482 5.242 5.242 0 003.657-1.483l-.001.001a4.98 4.98 0 001.52-3.562v-7.375S2.509 15.079 2.509 21.325zm5.177 1.321h-.003c-.279 0-.539-.083-.756-.225l.005.003a1.339 1.339 0 01-.496-.584l-.003-.009a1.272 1.272 0 01-.076-.771l-.001.008c.053-.257.182-.492.371-.676.185-.18.422-.308.685-.36l.009-.001c.263-.051.535-.025.783.075s.459.269.609.486a1.287 1.287 0 01.123 1.249l.003-.008a1.33 1.33 0 01-.734.717 1.36 1.36 0 01-.519.101h-.001v-.005zm10.567-.82h-1.059v1.094h-.552v-2.676h1.743v.447h-1.191v.691h1.059v.446zm2.651-.184c0 .264-.047.494-.14.693s-.227.351-.401.459a1.087 1.087 0 01-.575.162h-.021.001l-.033.001c-.425 0-.792-.249-.962-.61l-.003-.006a1.553 1.553 0 01-.146-.662v-.023.001-.133c0-.264.047-.496.142-.695a1.057 1.057 0 01.998-.623c.223 0 .42.054.594.162.174.107.307.26.402.461s.144.431.144.693v.119zm-.559-.121c0-.28-.051-.494-.151-.64a.49.49 0 00-.409-.219h-.023.001-.02a.493.493 0 00-.407.216l-.001.002c-.1.143-.152.354-.153.632v.131c0 .274.05.486.151.636s.245.226.434.226h.022a.485.485 0 00.404-.215l.001-.002c.099-.146.149-.358.151-.636v-.131zm2.347.697v-.016a.278.278 0 00-.11-.222h-.001a1.45 1.45 0 00-.397-.177 2.824 2.824 0 01-.47-.191l.016.008c-.304-.164-.456-.385-.456-.663 0-.144.04-.274.121-.387s.199-.203.351-.267c.153-.063.324-.095.515-.095s.361.035.511.105c.15.069.265.166.348.292.083.126.125.27.125.43h-.552a.357.357 0 00-.115-.285.473.473 0 00-.326-.104.5.5 0 00-.314.087.266.266 0 00-.113.218v.007c0 .087.044.159.131.218.088.059.218.114.388.166.314.094.542.211.685.351s.215.314.215.521c0 .232-.088.414-.263.546s-.411.197-.708.197c-.206 0-.393-.038-.562-.112a.911.911 0 01-.386-.308l-.002-.003a.79.79 0 01-.133-.44v-.016.001h.553c0 .295.176.443.529.443a.517.517 0 00.307-.079.262.262 0 00.11-.214v-.012.001zm2.943-1.528h-.82v2.23h-.552v-2.23h-.809v-.447h2.181v.447zm1.927 1.07h-1.059v.717h1.243v.443h-1.795v-2.676h1.791v.447h-1.239v.638h1.059v.432zm1.499.18h-.439v.98h-.552v-2.676h.995c.316 0 .56.07.732.211s.257.34.257.597c0 .182-.04.335-.119.458a.816.816 0 01-.354.288l-.005.002.579 1.094v.026h-.592l-.502-.98zm-.44-.446h.445a.456.456 0 00.321-.105.38.38 0 00.115-.272l-.001-.021v.001a.396.396 0 00-.109-.297c-.071-.073-.181-.109-.329-.109h-.444v.803zm3.342.483v.943h-.552v-2.676h1.045c.201 0 .377.036.53.11s.27.178.353.314a.872.872 0 01.123.462c0 .262-.09.469-.27.621-.179.151-.427.226-.745.226h-.483zm0-.446h.493c.146 0 .257-.035.333-.104.077-.068.116-.166.116-.294v-.019a.437.437 0 00-.117-.299.434.434 0 00-.32-.125h-.505v.841zm3.489.229h-1.059v.717h1.242v.443h-1.795v-2.676h1.791v.447h-1.239v.638h1.059v.432zm2.559-1.07h-.82v2.23h-.552v-2.23h-.808v-.447h2.18v.447zm1.927 1.07H38.88v.717h1.242v.443h-1.794v-2.676h1.791v.447H38.88v.638h1.059v.432zm1.498.18h-.439v.98h-.552v-2.676h.995c.316 0 .56.07.732.211s.257.34.257.597c0 .182-.04.335-.119.458a.813.813 0 01-.353.288l-.005.002.579 1.094v.026h-.592l-.502-.98zm-.439-.446h.446a.456.456 0 00.321-.105.38.38 0 00.114-.272l-.001-.022v.001a.4.4 0 00-.108-.297c-.072-.073-.181-.109-.329-.109h-.443v.803zm3.241.724v-.016a.278.278 0 00-.11-.222h-.001a1.45 1.45 0 00-.397-.177 2.86 2.86 0 01-.47-.191l.016.008c-.304-.164-.456-.385-.456-.663 0-.144.041-.274.122-.387s.199-.203.351-.267c.152-.063.324-.095.515-.095s.361.035.511.105a.815.815 0 01.348.292c.083.126.126.27.126.43h-.552a.357.357 0 00-.115-.285.473.473 0 00-.326-.104.5.5 0 00-.314.087.266.266 0 00-.113.218v.007c0 .087.044.159.131.218.088.059.218.114.388.166.314.094.543.211.686.351s.215.314.215.521c0 .232-.088.414-.263.546s-.411.197-.708.197c-.206 0-.393-.038-.562-.112a.911.911 0 01-.386-.308l-.002-.003a.79.79 0 01-.133-.44v-.016.001h.553c0 .295.176.443.529.443a.517.517 0 00.307-.079.262.262 0 00.11-.214v-.012.001z"/></symbol>
<symbol id="icon-email-black" viewBox="0 0 43 32"><path d="M37.358-.006H5.337c-2.201 0-3.984 1.801-3.984 4.003l-.019 24.016a4.015 4.015 0 004.003 4.003h32.021a4.015 4.015 0 004.003-4.003V3.997a4.015 4.015 0 00-4.003-4.003zm-.801 8.507l-14.148 8.843c-.302.188-.668.3-1.061.3s-.759-.112-1.069-.305l.009.005L6.137 8.498a1.702 1.702 0 01.864-3.164c.349 0 .674.105.943.286l13.403 8.383 13.409-8.387a1.7 1.7 0 111.809 2.878l-.008.004z"/></symbol><symbol id="icon-phone-black" viewBox="0 0 32 32"><path d="M27.433 20.863l-4.203-.48a3.285 3.285 0 00-2.715.942l-3.046 3.046c-4.72-2.436-8.471-6.188-10.841-10.769l-.065-.139 3.064-3.058a3.283 3.283 0 00.941-2.73l.002.016-.48-4.171A3.315 3.315 0 006.801.593H3.934C2.063.588.508 2.143.623 4.012c.878 14.133 12.182 25.421 26.299 26.299 1.868.114 3.426-1.441 3.426-3.311v-2.863-.016a3.28 3.28 0 00-2.898-3.257l-.015-.001z"/></symbol><symbol id="icon-person-black" viewBox="0 0 32 32"><path d="M16.005 16.005a8.002 8.002 0 100-16.004 8.002 8.002 0 100 16.004zm0 4.001C10.665 20.006 0 22.687 0 28.008v2.001c0 1.099.902 2.001 2.001 2.001h28.008a2.009 2.009 0 002.001-2.001v-2.001c0-5.322-10.664-8.002-16.005-8.002z"/></symbol><symbol id="icon-send" viewBox="0 0 32 32"><path fill="var(--color1, #fff)" d="M32.009 0L0 18.005l10.23 3.788L26.008 7.002 14.007 23.193l.009.003-.012-.003v8.816l5.736-6.693 7.269 2.691 5-28.008z"/></symbol>
<symbol id="icon-check" viewBox="0 0 34 32"><path d="M30.36 3.548v24.904H3.796V3.548H30.36zm0-3.558H3.796C1.708-.01 0 1.591 0 3.549v24.904c0 1.958 1.708 3.559 3.796 3.559H30.36c2.088 0 3.796-1.601 3.796-3.559V3.549c0-1.958-1.708-3.559-3.796-3.559z"/></symbol>
<symbol id="icon-uncheck" viewBox="0 0 34 32"><path fill="var(--color1, #2196f3)" d="M4.269-.01h25.617a4.269 4.269 0 014.269 4.269v23.482a4.269 4.269 0 01-4.269 4.269H4.269A4.27 4.27 0 010 27.741V4.259A4.269 4.269 0 014.269-.01z"/><path fill="var(--color2, #fff)" stroke="var(--color2, #fff)" stroke-width=".427" d="M8.447 16.538l-.147-.141-.147.139-2.058 1.951.162.156 7.61 7.258.147-.141 16.181-15.436-.162-.154-2.03-1.936-.147.141-13.989 13.333-5.42-5.17z"/></symbol></defs></svg>